<svg xmlns="http://www.w3.org/2000/svg" xmlns:xlink="http://www.w3.org/1999/xlink" width="488" height="848" viewBox="0 0 488 848">
  <defs>
    <filter id="jake-nackos-IF9TK5Uy-KI-unsplash" x="0" y="0" width="488" height="848" filterUnits="userSpaceOnUse">
      <feOffset dy="4" input="SourceAlpha"/>
      <feGaussianBlur stdDeviation="8" result="blur"/>
      <feFlood flood-color="#dddde0" flood-opacity="0.078"/>
      <feComposite operator="in" in2="blur"/>
      <feComposite in="SourceGraphic"/>
    </filter>
    <linearGradient id="linear-gradient" x1="0.5" x2="0.5" y2="1" gradientUnits="objectBoundingBox">
      <stop offset="0" stop-color="#6ac7bb" stop-opacity="0"/>
      <stop offset="1" stop-color="#6ac7bb"/>
    </linearGradient>
  </defs>
  <g id="Group_44" data-name="Group 44" transform="translate(24 20)">
    <g transform="matrix(1, 0, 0, 1, -24, -20)" filter="url(#jake-nackos-IF9TK5Uy-KI-unsplash)">
      <rect id="jake-nackos-IF9TK5Uy-KI-unsplash-2" data-name="jake-nackos-IF9TK5Uy-KI-unsplash" width="440" height="800" transform="translate(24 20)" fill="#635ca8"/>
    </g>
    <path id="Subtraction_14" data-name="Subtraction 14" d="M-1235.809,502h-78.416a22.954,22.954,0,0,0,6.76-1.616c11.924-4.833,26.031-18.959,30.8-30.848a21.592,21.592,0,0,0,1.64-7.524,21.587,21.587,0,0,0,1.64,7.524,45.109,45.109,0,0,0,5.169,9.176,70.235,70.235,0,0,0,7.6,8.923,70.443,70.443,0,0,0,8.925,7.585,45.363,45.363,0,0,0,9.158,5.163,23.006,23.006,0,0,0,6.726,1.614Z" transform="translate(1395 298.001)" fill="#6ac7bb" stroke="rgba(0,0,0,0)" stroke-width="1"/>
    <path id="Subtraction_13" data-name="Subtraction 13" d="M-1315.809,502h-78.416a22.954,22.954,0,0,0,6.76-1.616,45.66,45.66,0,0,0,9.17-5.182,70.262,70.262,0,0,0,8.908-7.583,70.038,70.038,0,0,0,7.57-8.913,45.251,45.251,0,0,0,5.156-9.17,21.587,21.587,0,0,0,1.64-7.524,21.588,21.588,0,0,0,1.64,7.524,45.109,45.109,0,0,0,5.169,9.176,70.262,70.262,0,0,0,7.6,8.923,70.464,70.464,0,0,0,8.925,7.585,45.362,45.362,0,0,0,9.158,5.163,23.006,23.006,0,0,0,6.726,1.614Z" transform="translate(1395 298.001)" fill="#6ac7bb" stroke="rgba(0,0,0,0)" stroke-width="1"/>
    <path id="Path_92" data-name="Path 92" d="M292.455,486.239c11.923-4.832,26.017-18.925,30.8-30.847a21.64,21.64,0,0,0,1.639-7.534,21.627,21.627,0,0,0,1.64,7.534c4.786,11.922,18.969,26.06,30.847,30.847a21.639,21.639,0,0,0,7.535,1.639,21.641,21.641,0,0,0-7.535,1.64c-11.878,4.787-26.061,18.925-30.847,30.8a21.627,21.627,0,0,0-1.64,7.534,21.641,21.641,0,0,0-1.639-7.534c-4.786-11.878-18.881-26.016-30.8-30.8a21.638,21.638,0,0,0-7.534-1.64A21.636,21.636,0,0,0,292.455,486.239Z" transform="translate(-164.921 232.146)" fill="#6ac7bb" opacity="0.5"/>
    <path id="Path_93" data-name="Path 93" d="M292.455,486.239c11.923-4.832,26.017-18.925,30.8-30.847a21.64,21.64,0,0,0,1.639-7.534,21.627,21.627,0,0,0,1.64,7.534c4.786,11.922,18.969,26.06,30.847,30.847a21.639,21.639,0,0,0,7.535,1.639,21.641,21.641,0,0,0-7.535,1.64c-11.878,4.787-26.061,18.925-30.847,30.8a21.627,21.627,0,0,0-1.64,7.534,21.641,21.641,0,0,0-1.639-7.534c-4.786-11.878-18.881-26.016-30.8-30.8a21.638,21.638,0,0,0-7.534-1.64A21.636,21.636,0,0,0,292.455,486.239Z" transform="translate(-244.921 232.146)" fill="#6ac7bb" opacity="0.5"/>
    <path id="Path_95" data-name="Path 95" d="M292.455,486.239c11.923-4.832,26.017-18.925,30.8-30.847a21.64,21.64,0,0,0,1.639-7.534,21.627,21.627,0,0,0,1.64,7.534c4.786,11.922,18.969,26.06,30.847,30.847a21.639,21.639,0,0,0,7.535,1.639,21.641,21.641,0,0,0-7.535,1.64c-11.878,4.787-26.061,18.925-30.847,30.8a21.627,21.627,0,0,0-1.64,7.534,21.641,21.641,0,0,0-1.639-7.534c-4.786-11.878-18.881-26.016-30.8-30.8a21.638,21.638,0,0,0-7.534-1.64A21.636,21.636,0,0,0,292.455,486.239Z" transform="translate(-284.921 152.143)" opacity="0.25" fill="url(#linear-gradient)"/>
    <path id="Path_118" data-name="Path 118" d="M292.455,486.239c11.923-4.832,26.017-18.925,30.8-30.847a21.64,21.64,0,0,0,1.639-7.534,21.627,21.627,0,0,0,1.64,7.534c4.786,11.922,18.969,26.06,30.847,30.847a21.639,21.639,0,0,0,7.535,1.639,21.641,21.641,0,0,0-7.535,1.64c-11.878,4.787-26.061,18.925-30.847,30.8a21.627,21.627,0,0,0-1.64,7.534,21.641,21.641,0,0,0-1.639-7.534c-4.786-11.878-18.881-26.016-30.8-30.8a21.638,21.638,0,0,0-7.534-1.64A21.636,21.636,0,0,0,292.455,486.239Z" transform="translate(-204.921 152.143)" opacity="0.25" fill="url(#linear-gradient)"/>
    <path id="Path_119" data-name="Path 119" d="M292.455,486.239c11.923-4.832,26.017-18.925,30.8-30.847a21.64,21.64,0,0,0,1.639-7.534,21.627,21.627,0,0,0,1.64,7.534c4.786,11.922,18.969,26.06,30.847,30.847a21.639,21.639,0,0,0,7.535,1.639,21.641,21.641,0,0,0-7.535,1.64c-11.878,4.787-26.061,18.925-30.847,30.8a21.627,21.627,0,0,0-1.64,7.534,21.641,21.641,0,0,0-1.639-7.534c-4.786-11.878-18.881-26.016-30.8-30.8a21.638,21.638,0,0,0-7.534-1.64A21.636,21.636,0,0,0,292.455,486.239Z" transform="translate(-124.921 152.143)" opacity="0.25" fill="url(#linear-gradient)"/>
    <path id="Path_120" data-name="Path 120" d="M292.455,486.239c11.923-4.832,26.017-18.925,30.8-30.847a21.64,21.64,0,0,0,1.639-7.534,21.627,21.627,0,0,0,1.64,7.534c4.786,11.922,18.969,26.06,30.847,30.847a21.639,21.639,0,0,0,7.535,1.639,21.641,21.641,0,0,0-7.535,1.64c-11.878,4.787-26.061,18.925-30.847,30.8a21.627,21.627,0,0,0-1.64,7.534,21.641,21.641,0,0,0-1.639-7.534c-4.786-11.878-18.881-26.016-30.8-30.8a21.638,21.638,0,0,0-7.534-1.64A21.636,21.636,0,0,0,292.455,486.239Z" transform="translate(-44.921 152.143)" opacity="0.25" fill="url(#linear-gradient)"/>
    <path id="Path_121" data-name="Path 121" d="M292.455,486.239c11.923-4.832,26.017-18.925,30.8-30.847a21.64,21.64,0,0,0,1.639-7.534,21.627,21.627,0,0,0,1.64,7.534c4.786,11.922,18.969,26.06,30.847,30.847a21.639,21.639,0,0,0,7.535,1.639,21.641,21.641,0,0,0-7.535,1.64c-11.878,4.787-26.061,18.925-30.847,30.8a21.627,21.627,0,0,0-1.64,7.534,21.641,21.641,0,0,0-1.639-7.534c-4.786-11.878-18.881-26.016-30.8-30.8a21.638,21.638,0,0,0-7.534-1.64A21.636,21.636,0,0,0,292.455,486.239Z" transform="translate(35.079 152.143)" opacity="0.25" fill="url(#linear-gradient)"/>
    <path id="Subtraction_15" data-name="Subtraction 15" d="M-1155.809,502h-78.416a22.952,22.952,0,0,0,6.76-1.616c11.924-4.833,26.031-18.959,30.8-30.848a21.592,21.592,0,0,0,1.64-7.524,21.591,21.591,0,0,0,1.64,7.524,45.108,45.108,0,0,0,5.169,9.176,70.235,70.235,0,0,0,7.6,8.923,70.443,70.443,0,0,0,8.925,7.585,45.363,45.363,0,0,0,9.158,5.163,23,23,0,0,0,6.726,1.614Z" transform="translate(1395 298.001)" fill="#6ac7bb" stroke="rgba(0,0,0,0)" stroke-width="1"/>
    <path id="Path_97" data-name="Path 97" d="M292.455,486.239c11.923-4.832,26.017-18.925,30.8-30.847a21.64,21.64,0,0,0,1.639-7.534,21.627,21.627,0,0,0,1.64,7.534c4.786,11.922,18.969,26.06,30.847,30.847a21.639,21.639,0,0,0,7.535,1.639,21.641,21.641,0,0,0-7.535,1.64c-11.878,4.787-26.061,18.925-30.847,30.8a21.627,21.627,0,0,0-1.64,7.534,21.641,21.641,0,0,0-1.639-7.534c-4.786-11.878-18.881-26.016-30.8-30.8a21.638,21.638,0,0,0-7.534-1.64A21.636,21.636,0,0,0,292.455,486.239Z" transform="translate(-84.921 232.146)" fill="#6ac7bb" opacity="0.5"/>
    <path id="Subtraction_16" data-name="Subtraction 16" d="M-1075.809,502h-78.416a22.94,22.94,0,0,0,6.759-1.616,45.666,45.666,0,0,0,9.17-5.182,70.272,70.272,0,0,0,8.908-7.583,70.034,70.034,0,0,0,7.57-8.913,45.251,45.251,0,0,0,5.156-9.17,21.606,21.606,0,0,0,1.639-7.524,21.571,21.571,0,0,0,1.641,7.524,45.108,45.108,0,0,0,5.169,9.176,70.248,70.248,0,0,0,7.6,8.923,70.456,70.456,0,0,0,8.925,7.585,45.359,45.359,0,0,0,9.158,5.163,23.015,23.015,0,0,0,6.727,1.614Z" transform="translate(1395 298.001)" fill="#6ac7bb" stroke="rgba(0,0,0,0)" stroke-width="1"/>
    <path id="Path_103" data-name="Path 103" d="M292.455,486.239c11.923-4.832,26.017-18.925,30.8-30.847a21.64,21.64,0,0,0,1.639-7.534,21.627,21.627,0,0,0,1.64,7.534c4.786,11.922,18.969,26.06,30.847,30.847a21.639,21.639,0,0,0,7.535,1.639,21.641,21.641,0,0,0-7.535,1.64c-11.878,4.787-26.061,18.925-30.847,30.8a21.627,21.627,0,0,0-1.64,7.534,21.641,21.641,0,0,0-1.639-7.534c-4.786-11.878-18.881-26.016-30.8-30.8a21.638,21.638,0,0,0-7.534-1.64A21.636,21.636,0,0,0,292.455,486.239Z" transform="translate(-4.921 232.146)" fill="#6ac7bb" opacity="0.5"/>
    <path id="Subtraction_17" data-name="Subtraction 17" d="M-995.809,502h-78.416a22.939,22.939,0,0,0,6.759-1.616,45.663,45.663,0,0,0,9.17-5.182,70.272,70.272,0,0,0,8.908-7.583,70.03,70.03,0,0,0,7.57-8.913,45.251,45.251,0,0,0,5.156-9.17,21.608,21.608,0,0,0,1.639-7.524,21.587,21.587,0,0,0,1.64,7.524,45.111,45.111,0,0,0,5.169,9.176,70.254,70.254,0,0,0,7.6,8.923,70.454,70.454,0,0,0,8.925,7.585,45.361,45.361,0,0,0,9.158,5.163A23.016,23.016,0,0,0-995.809,502Z" transform="translate(1395 298.001)" fill="#6ac7bb" stroke="rgba(0,0,0,0)" stroke-width="1"/>
    <path id="Path_107" data-name="Path 107" d="M292.455,486.239c11.923-4.832,26.017-18.925,30.8-30.847a21.64,21.64,0,0,0,1.639-7.534,21.627,21.627,0,0,0,1.64,7.534c4.786,11.922,18.969,26.06,30.847,30.847a21.639,21.639,0,0,0,7.535,1.639,21.641,21.641,0,0,0-7.535,1.64c-11.878,4.787-26.061,18.925-30.847,30.8a21.627,21.627,0,0,0-1.64,7.534,21.641,21.641,0,0,0-1.639-7.534c-4.786-11.878-18.881-26.016-30.8-30.8a21.638,21.638,0,0,0-7.534-1.64A21.636,21.636,0,0,0,292.455,486.239Z" transform="translate(75.079 232.146)" fill="#6ac7bb" opacity="0.5"/>
    <path id="Subtraction_18" data-name="Subtraction 18" d="M-955,501.91h-39.23a22.959,22.959,0,0,0,6.764-1.616,45.643,45.643,0,0,0,9.17-5.182,70.133,70.133,0,0,0,8.908-7.583,70.03,70.03,0,0,0,7.57-8.912,45.267,45.267,0,0,0,5.155-9.17,21.739,21.739,0,0,0,1.64-7.446c0,.212.009.443.022.686v39.224Z" transform="translate(1395 298.09)" fill="#6ac7bb" stroke="rgba(0,0,0,0)" stroke-width="1"/>
    <path id="Subtraction_10" data-name="Subtraction 10" d="M39.968,0h0a21.867,21.867,0,0,1-1.639,7.375c-4.8,11.922-18.911,26.028-30.8,30.8A21.613,21.613,0,0,1,0,39.818a21.609,21.609,0,0,1,7.523,1.639,45.656,45.656,0,0,1,9.17,5.182A70.273,70.273,0,0,1,25.6,54.222a70.055,70.055,0,0,1,7.57,8.912,45.258,45.258,0,0,1,5.156,9.17,21.732,21.732,0,0,1,1.64,7.445c0-.216.009-.446.023-.685V.615C39.977.408,39.97.2,39.968,0Z" transform="translate(40 759.841) rotate(180)" fill="#6ac7bb" stroke="rgba(0,0,0,0)" stroke-width="1" opacity="0.5"/>
    <path id="Subtraction_11" data-name="Subtraction 11" d="M-1361.021-881.161h0a21.867,21.867,0,0,0-1.639-7.375c-4.8-11.922-18.911-26.028-30.8-30.8a21.613,21.613,0,0,0-7.523-1.64,21.609,21.609,0,0,0,7.523-1.639,45.656,45.656,0,0,0,9.17-5.182,70.273,70.273,0,0,0,8.908-7.583,70.055,70.055,0,0,0,7.57-8.912,45.258,45.258,0,0,0,5.156-9.17,21.732,21.732,0,0,0,1.64-7.445c0,.216.009.446.023.685v78.45C-1361.012-881.57-1361.019-881.363-1361.021-881.161Z" transform="translate(1801 1561)" stroke="rgba(0,0,0,0)" stroke-width="1" opacity="0.25" fill="url(#linear-gradient)"/>
  </g>
</svg>
